<?xml version="1.0" standalone="no"?><!DOCTYPE svg PUBLIC "-//W3C//DTD SVG 1.1//EN" "http://www.w3.org/Graphics/SVG/1.1/DTD/svg11.dtd"><svg t="1617893333165" class="icon" viewBox="0 0 1024 1024" version="1.1" xmlns="http://www.w3.org/2000/svg" p-id="8545" xmlns:xlink="http://www.w3.org/1999/xlink" width="200" height="200"><defs><style type="text/css"></style></defs><path d="M212.793297 701.694024a23.008953 23.008953 0 1 0 0 46.017905h230.044366a23.008953 23.008953 0 1 0 0-46.017905H212.793297z m299.071223-115.044763c0-12.712503-10.29645-23.008953-23.008952-23.008952H212.793297a23.008953 23.008953 0 1 0 0 46.017905H488.855568c12.712503 0 23.008953-10.29645 23.008952-23.008953zM51.753208 885.743065V241.560132a92.03581 92.03581 0 0 1 92.013231-92.01323h736.196163a92.03581 92.03581 0 0 1 92.03581 92.01323v514.957972l45.995326 78.171731V195.542227a92.03581 92.03581 0 0 0-92.035811-92.01323H97.771114A92.05839 92.05839 0 0 0 5.735303 195.542227v736.196163a92.03581 92.03581 0 0 0 92.035811 92.013231h166.256052l27.050761-46.017905H143.766439a91.99065 91.99065 0 0 1-92.013231-91.990651z m782.214069-437.124939a23.031533 23.031533 0 0 0-23.031533-23.008953H212.793297a23.008953 23.008953 0 1 0 0 46.017905h598.142447a23.031533 23.031533 0 0 0 23.031533-23.008952z m-138.279515 23.596031L373.065667 1024h645.17645L695.687762 472.214157z m23.212172 459.546813h-45.995325v-46.017905h45.995325v46.017905z m-45.995325-92.05839v-184.026461h45.995325v184.026461h-45.995325z m138.031135-552.124543H212.793297a23.008953 23.008953 0 1 0 0 46.017906h598.142447a23.031533 23.031533 0 1 0 0-46.017906z" fill="#e98f36" p-id="8546"></path></svg>