<?xml version="1.0" standalone="no"?><!DOCTYPE svg PUBLIC "-//W3C//DTD SVG 1.1//EN" "http://www.w3.org/Graphics/SVG/1.1/DTD/svg11.dtd"><svg t="1616716868888" class="icon" viewBox="0 0 1024 1024" version="1.1" xmlns="http://www.w3.org/2000/svg" p-id="6142" xmlns:xlink="http://www.w3.org/1999/xlink" width="200" height="200"><defs><style type="text/css"></style></defs><path d="M510.918 967.433c-58.837 0-115.931-11.53-169.696-34.271-51.915-21.958-98.532-53.386-138.558-93.411s-71.454-86.644-93.412-138.558c-22.741-53.766-34.271-110.859-34.271-169.696 0-146.698 73.122-282.681 195.6-363.755l1.409-0.929c14.775-9.696 34.615-5.577 44.31 9.199 9.696 14.776 5.577 34.614-9.199 44.31l-1.176 0.775c-104.542 69.201-166.944 185.234-166.944 310.399 0 205.087 166.85 371.937 371.937 371.937 205.086 0 371.937-166.85 371.937-371.937 0-124.206-61.66-239.744-164.942-309.065-14.674-9.849-18.585-29.729-8.736-44.404s29.731-18.585 44.403-8.737c121.023 81.229 193.275 216.633 193.275 362.206 0 58.837-11.53 115.931-34.271 169.696-21.958 51.914-53.386 98.532-93.411 138.558s-86.644 71.453-138.559 93.411c-53.764 22.741-110.858 34.272-169.696 34.272z" fill="#515151" p-id="6143"></path><path d="M510.918 586.962c-17.673 0-32-14.327-32-32V87.245c0-17.673 14.327-32 32-32s32 14.327 32 32v467.717c0 17.673-14.326 32-32 32z" fill="#515151" p-id="6144"></path></svg>