<?xml version="1.0" standalone="no"?><!DOCTYPE svg PUBLIC "-//W3C//DTD SVG 1.1//EN" "http://www.w3.org/Graphics/SVG/1.1/DTD/svg11.dtd"><svg t="1630198006497" class="icon" viewBox="0 0 1024 1024" version="1.1" xmlns="http://www.w3.org/2000/svg" p-id="10634" xmlns:xlink="http://www.w3.org/1999/xlink" width="200" height="200"><defs><style type="text/css"></style></defs><path d="M943.632926 923.051444L849.968124 810.429292c36.534526-43.542246 59.009093-100.325252 59.944049-161.836466 0.943861-68.14495-24.344478-133.449414-72.116288-181.710963-46.836853-49.214313-110.520727-76.666408-177.953329-77.610268-67.441507-0.943861-132.069241 24.611609-179.832147 72.873157-48.706766 47.326592-75.865017 111.678292-76.799973 179.823242-0.943861 68.136046 24.344478 133.44051 72.116288 181.710963 47.762905 48.261548 110.520727 76.657504 177.95333 77.601364h3.748729c50.576678 0 97.413531-15.137386 136.744022-40.692855l91.794889 110.725526a38.235256 38.235256 0 0 0 29.028164 13.249665c8.432414 0 16.864829-2.831582 24.353383-8.512553 15.920968-13.249665 18.734741-36.908509 4.683685-52.99866zM655.15887 844.48841c-52.44659-0.943861-102.097217-21.771123-138.622838-60.567353-36.525622-37.861274-56.19532-88.019448-56.19532-141.961968 0.934956-52.99866 21.548514-103.165738 59.944049-140.065342 37.460578-36.917413 86.167344-56.791911 137.678978-56.791911h2.813773c52.44659 0.943861 102.088312 21.771123 138.613934 60.567353 36.534526 37.861274 56.204224 88.019448 56.204224 141.961968-2.813773 109.790571-91.79489 198.744974-200.4368 196.857253z" fill="#1296db" p-id="10635"></path><path d="M922.111125 232.003058L702.31628 8.521814A29.206251 29.206251 0 0 0 681.551348 0.000356H154.191531C107.969078 0.000356 71.176326 36.935578 71.176326 81.439493v856.036989c0 45.447775 36.792752 81.439137 81.127484 81.439137h481.128459c16.045629 0 28.306912-12.314709 28.306912-28.40486 0-16.10796-12.261283-28.413764-28.306912-28.413764H152.30381c-13.205143 0-24.522565-11.361944-24.522565-24.620513V81.439493c0-14.20243 11.317422-24.620513 26.410286-24.620513h499.996766v142.042107c0 44.503915 35.848892 81.430233 80.192528 81.430233h137.732405v124.999191c0 16.099055 12.261283 28.40486 28.298007 28.40486 16.045629 0 28.306912-12.305804 28.306912-28.40486V259.472962c2.831582-9.474223 0-20.836167-6.607024-27.461z m-187.7303-8.521458c-13.214048 0-23.587609-11.361944-23.587609-24.620513v-101.331443l123.592305 125.951956H734.371921z" fill="#1296db" p-id="10636"></path><path d="M250.536541 355.185763c-16.223716 0-28.618564 12.341422-28.618564 28.476095 0 16.143577 12.394848 28.484999 28.618564 28.484998H458.515321c16.214812 0 28.618564-12.341422 28.618564-28.484998 0-16.134673-12.403752-28.476094-28.618564-28.476095H250.536541z m284.297919-79.756216c16.223716 0 28.627468-12.341422 28.627468-28.476094 0-16.143577-12.403752-28.484999-28.627468-28.484999L248.639916 217.533498c-16.223716 0-28.627468 12.341422-28.627468 28.476094 0 16.143577 12.403752 28.484999 28.627468 28.484999l286.203448 0.943861z" fill="#1296db" p-id="10637"></path></svg>