<?xml version="1.0" standalone="no"?><!DOCTYPE svg PUBLIC "-//W3C//DTD SVG 1.1//EN" "http://www.w3.org/Graphics/SVG/1.1/DTD/svg11.dtd"><svg t="1616887104852" class="icon" viewBox="0 0 1024 1024" version="1.1" xmlns="http://www.w3.org/2000/svg" p-id="4683" xmlns:xlink="http://www.w3.org/1999/xlink" width="200" height="200"><defs><style type="text/css"></style></defs><path d="M426.666667 896H256a42.666667 42.666667 0 0 1-42.666667-42.666667V170.666667a42.666667 42.666667 0 0 1 42.666667-42.666667h170.666667a42.666667 42.666667 0 0 1 42.666666 42.666667v682.666666a42.666667 42.666667 0 0 1-42.666666 42.666667z m-128-85.333333h85.333333V213.333333H298.666667zM768 896h-170.666667a42.666667 42.666667 0 0 1-42.666666-42.666667V170.666667a42.666667 42.666667 0 0 1 42.666666-42.666667h170.666667a42.666667 42.666667 0 0 1 42.666667 42.666667v682.666666a42.666667 42.666667 0 0 1-42.666667 42.666667z m-128-85.333333h85.333333V213.333333h-85.333333z" p-id="4684" fill="#515151"></path></svg>