<?xml version="1.0" standalone="no"?><!DOCTYPE svg PUBLIC "-//W3C//DTD SVG 1.1//EN" "http://www.w3.org/Graphics/SVG/1.1/DTD/svg11.dtd"><svg t="1617958483905" class="icon" viewBox="0 0 1024 1024" version="1.1" xmlns="http://www.w3.org/2000/svg" p-id="1478" xmlns:xlink="http://www.w3.org/1999/xlink" width="200" height="200"><defs><style type="text/css"></style></defs><path d="M1024 512L887.466667 409.6v68.266667H443.050667l75.093333-102.4h106.496A68.266667 68.266667 0 0 0 682.666667 409.6a68.266667 68.266667 0 0 0 0-136.533333 68.266667 68.266667 0 0 0-58.026667 34.133333H483.328L358.4 477.866667h-23.210667a102.4 102.4 0 1 0 0 68.266666h125.610667l124.928 170.666667H682.666667v34.133333h136.533333V614.4h-136.533333v34.133333h-62.122667L546.133333 546.133333h341.333334v68.266667z" fill="#e98f36" p-id="1479"></path><path d="M799.402667 0H0v1024h1024v-307.2h-68.266667V955.733333H68.266667V68.266667h702.464L955.733333 253.269333V375.466667h68.266667V224.597333L799.402667 0z" fill="#e98f36" p-id="1480"></path><path d="M136.533333 136.533333h614.4v68.266667H136.533333zM136.533333 682.666667h273.066667v68.266666H136.533333zM136.533333 819.2h750.933334v68.266667H136.533333zM136.533333 273.066667h204.8v68.266666H136.533333z" fill="#e98f36" p-id="1481"></path></svg>