<?xml version="1.0" standalone="no"?><!DOCTYPE svg PUBLIC "-//W3C//DTD SVG 1.1//EN" "http://www.w3.org/Graphics/SVG/1.1/DTD/svg11.dtd"><svg t="1617962714529" class="icon" viewBox="0 0 1024 1024" version="1.1" xmlns="http://www.w3.org/2000/svg" p-id="2679" xmlns:xlink="http://www.w3.org/1999/xlink" width="200" height="200"><defs><style type="text/css"></style></defs><path d="M509.166933 230.4A281.6 281.6 0 1 0 793.6 512a280.302933 280.302933 0 0 0-65.672533-180.770133 25.6 25.6 0 0 1 39.253333-32.904534A331.502933 331.502933 0 0 1 844.8 512c0 183.808-148.992 332.8-332.8 332.8S179.2 695.808 179.2 512c0-177.493333 138.922667-322.491733 313.924267-332.288l-45.056-45.056a25.6 25.6 0 1 1 36.181333-36.215467l96.5632 96.529067a25.6 25.6 0 0 1 0 36.215467l-96.5632 96.529066a25.6 25.6 0 1 1-36.181333-36.181333l61.098666-61.098667z" fill="#515151" p-id="2680"></path></svg>