<?xml version="1.0" standalone="no"?><!DOCTYPE svg PUBLIC "-//W3C//DTD SVG 1.1//EN" "http://www.w3.org/Graphics/SVG/1.1/DTD/svg11.dtd"><svg t="1616715852339" class="icon" viewBox="0 0 1024 1024" version="1.1" xmlns="http://www.w3.org/2000/svg" p-id="1666" xmlns:xlink="http://www.w3.org/1999/xlink" width="200" height="200"><defs><style type="text/css"></style></defs><path d="M916.745314 254.475854l-147.446968-147.446968c-5.419184-5.419184-12.870562-8.580375-20.773539-8.580374H128.028225c-16.257552 0-29.353914 13.096362-29.353914 29.353914v768.169349c0 16.257552 13.096362 29.353914 29.353914 29.353914h767.94355c16.257552 0 29.353914-13.096362 29.353914-29.353914v-620.948181c0-7.677178-2.935391-15.128556-8.580375-20.54774zM658.88247 157.15634v247.024476H312.280485V157.15634h346.601985zM267.120617 866.392062V562.466152h489.758766v304.151709l-489.758766-0.225799z m599.497244 0h-51.03065V533.112238c0-16.257552-13.096362-29.353914-29.353914-29.353914H237.766703c-16.257552 0-29.353914 13.096362-29.353914 29.353914v333.505623H157.382139V157.15634h96.190518v276.37839c0 16.257552 13.096362 29.353914 29.353914 29.353914h405.309813c16.257552 0 29.353914-13.096362 29.353914-29.353914V157.15634h18.967144l130.286218 130.286218v578.949504h-0.225799z" p-id="1667" fill="#515151"></path><path d="M585.046086 390.858655c16.257552 0 29.353914-13.096362 29.353914-29.353914v-161.672326c0-16.257552-13.096362-29.353914-29.353914-29.353914s-29.353914 13.096362-29.353914 29.353914v161.672326c0 16.257552 13.096362 29.353914 29.353914 29.353914z" p-id="1668" fill="#515151"></path></svg>