<?xml version="1.0" standalone="no"?><!DOCTYPE svg PUBLIC "-//W3C//DTD SVG 1.1//EN" "http://www.w3.org/Graphics/SVG/1.1/DTD/svg11.dtd"><svg t="1616717247415" class="icon" viewBox="0 0 1024 1024" version="1.1" xmlns="http://www.w3.org/2000/svg" p-id="6993" xmlns:xlink="http://www.w3.org/1999/xlink" width="200" height="200"><defs><style type="text/css"></style></defs><path d="M917.333333 533.333333h-85.333333v-341.333333h-640V640h384v85.333333H128a21.333333 21.333333 0 0 1-21.333333-21.333333V128a21.333333 21.333333 0 0 1 21.333333-21.333333h768a21.333333 21.333333 0 0 1 21.333333 21.333333v405.333333z" p-id="6994" fill="#515151"></path><path d="M783.530667 569.856c7.381333 0 13.568 5.248 14.976 12.202667l0.298666 3.072v62.677333l44.074667-45.013333c4.224-4.266667 10.325333-5.546667 15.701333-3.754667l3.072 1.408 2.816 2.133333 22.912 22.442667a15.36 15.36 0 0 1 2.346667 18.773333l-2.133333 2.816-45.994667 46.976h65.792c5.930667 0 11.178667 3.413333 13.824 9.088l1.066667 2.986667 0.341333 3.2v32c0 5.973333-3.413333 11.178667-9.045333 13.824l-2.986667 1.109333-3.242667 0.341334h-62.933333l44.970667 43.946666c3.157333 3.114667 4.693333 7.253333 4.394666 11.733334l-0.597333 3.370666-1.28 3.370667-2.304 3.114667-22.442667 22.954666a15.104 15.104 0 0 1-15.061333 3.797334l-3.413333-1.28-3.114667-2.346667-46.805333-45.738667 0.085333 65.578667c0 5.973333-3.413333 11.178667-9.045333 13.824l-2.986667 1.109333-3.242667 0.341334h-32a15.146667 15.146667 0 0 1-13.824-9.045334l-1.109333-2.986666-0.384-3.242667-0.042667-63.274667-44.117333 45.226667a14.848 14.848 0 0 1-11.690667 4.352l-3.413333-0.597333-3.370667-1.28-3.114666-2.304-22.912-22.4a15.104 15.104 0 0 1-3.84-15.061334l1.322666-3.413333 2.304-3.114667 45.525334-46.592h-65.109334a15.317333 15.317333 0 0 1-14.976-12.202666l-0.298666-3.072v-32c0-7.381333 5.248-13.568 12.202666-14.976l3.072-0.341334h63.104l-45.226666-44.245333a15.36 15.36 0 0 1-3.84-15.701333l1.450666-3.114667 2.133334-2.773333 22.442666-22.954667a15.36 15.36 0 0 1 18.773334-2.346667l2.816 2.133334 46.762666 45.738666v-65.194666c0-7.381333 5.290667-13.568 12.245334-14.976l3.072-0.298667h32z m-16.298667 96.682667c-5.76 0-11.392 0.853333-16.810667 2.517333l-5.717333 2.048a58.026667 58.026667 0 0 0-25.216 20.48l-3.413333 5.589333-1.024 2.133334 7.253333 7.082666h-10.154667l-0.426666 1.152-1.365334 5.546667-0.853333 5.674667-0.298667 5.802666c0 5.930667 0.896 11.733333 2.645334 17.28l2.005333 5.461334c4.352 10.197333 11.52 18.858667 20.352 25.002666l5.546667 3.413334 2.517333 1.152 6.741333-6.869334v9.557334l2.133334 0.768 5.290666 1.28 5.376 0.725333 5.418667 0.256c3.968 0 7.893333-0.426667 11.605333-1.152l1.536-0.384-10.752-10.538667 22.229334 6.528 3.242666-1.536c8.021333-4.394667 14.762667-10.538667 19.84-17.92l3.498667-5.674666 1.024-2.261334-6.4-6.314666h9.002667l0.682666-1.792 1.365334-5.461334 0.853333-5.674666 0.298667-5.845334c0-3.84-0.426667-7.68-1.109334-11.264l-1.28-5.333333-2.133333-5.802667a58.453333 58.453333 0 0 0-25.045333-28.16l-3.072-1.578666-6.613334 6.826666v-9.557333l-2.346666-0.810667-5.333334-1.28-5.504-0.810666-5.546666-0.256z" p-id="6995" fill="#515151"></path><path d="M768.512 615.338667a109.226667 109.226667 0 1 1 0 218.453333 109.226667 109.226667 0 0 1 0-218.453333z m0 74.666666a34.56 34.56 0 1 0 0 69.162667 34.56 34.56 0 0 0 0-69.12zM576 810.666667v85.333333h-341.333333v-85.333333z" p-id="6996" fill="#515151"></path></svg>