<?xml version="1.0" standalone="no"?><!DOCTYPE svg PUBLIC "-//W3C//DTD SVG 1.1//EN" "http://www.w3.org/Graphics/SVG/1.1/DTD/svg11.dtd"><svg t="1629424248246" class="icon" viewBox="0 0 1024 1024" version="1.1" xmlns="http://www.w3.org/2000/svg" p-id="1317" xmlns:xlink="http://www.w3.org/1999/xlink" width="200" height="200"><defs><style type="text/css"></style></defs><path d="M838.26 131.9H488.71V89.72c0-12.05-9.94-22.09-21.87-22.09H268.41c-12.15 0-21.87 10.04-21.87 22.09v42.18h-75.79c-11.93 0-21.87 9.82-21.87 22.09v513.74c0 17.63 14.36 32.14 31.82 32.14h647.85c17.46 0 31.82-14.51 31.82-32.14V153.99c-0.01-12.27-9.96-22.09-22.11-22.09z" fill="#F9AA7F" p-id="1318"></path><path d="M241.01 300.17v302.17h527.21V166.27H241.01z" fill="#FFFFFF" p-id="1319"></path><path d="M420.65 225.85h16.57v305.74h-16.57zM496.44 225.85h16.35v305.74h-16.35zM570.9 225.85h16.35v305.74H570.9zM646.47 225.85h16.57v305.74h-16.57z" fill="#E6E8ED" p-id="1320"></path><path d="M896.37 281.42H558.75c-10.83 0-18.56 8.7-18.56 18.75l-1.1 56.46c0 9.82-8.84 17.63-18.56 17.63H124.79c-9.94 0-17.46 7.81-16.35 17.85l38.23 293.24c1.1 7.81 8.84 14.51 18.78 14.51h679.44c8.84 0 17.68-6.7 18.78-14.51l50.38-385.19c0-10.04-7.73-18.74-17.68-18.74z" fill="#BBCFF2" p-id="1321"></path><path d="M473.24 700.98h74.68v225.85h-74.68z" fill="#E6E8ED" p-id="1322"></path><path d="M157.71 851.4h705.96v75.43H157.71z" fill="#E6E8ED" p-id="1323"></path><path d="M510.58 820.38c37.56 0 68.05 30.8 68.05 68.74s-30.49 68.51-68.05 68.51-67.83-30.57-67.83-68.51c0-37.95 30.27-68.74 67.83-68.74z" fill="#475DB0" p-id="1324"></path></svg>