<svg xmlns="http://www.w3.org/2000/svg" viewBox="0 0 696.73 293.15"><defs><style>.cls-1{fill:#cfd8e2;}.cls-15,.cls-17,.cls-2{fill:#0f64c8;}.cls-3{fill:#70a2dd;}.cls-18,.cls-4,.cls-8{fill:#e9edf2;}.cls-5{fill:#f5f6f7;}.cls-13,.cls-6{fill:#c1c9d3;}.cls-10,.cls-12,.cls-7{fill:#0564c8;}.cls-10,.cls-11,.cls-8,.cls-9{stroke:#cfd8e2;}.cls-11,.cls-12,.cls-13,.cls-16,.cls-17,.cls-8,.cls-9{stroke-linecap:round;stroke-linejoin:round;}.cls-10,.cls-11,.cls-12,.cls-13,.cls-15,.cls-16,.cls-17,.cls-8,.cls-9{stroke-width:3px;}.cls-14,.cls-9{fill:none;}.cls-10,.cls-15{stroke-miterlimit:10;}.cls-11,.cls-16{fill:#fff;}.cls-12{stroke:#0564c8;}.cls-13,.cls-16{stroke:#c1c9d3;}.cls-15,.cls-17{stroke:#0f64c8;}.cls-18{opacity:0.5;isolation:isolate;}</style></defs><g id="Layer_2" data-name="Layer 2"><g id="Layer_1-2" data-name="Layer 1"><rect class="cls-1" x="213.86" y="68.04" width="300.13" height="200.33" rx="12.96"/><g id="Path_81896" data-name="Path 81896"><path class="cls-1" d="M403.46,293.15H323.14c-4.76,0-8.62-3.47-8.62-7.75s3.86-7.75,8.62-7.75h80.32c4.76,0,8.62,3.47,8.62,7.75S408.22,293.15,403.46,293.15Z"/></g><g id="Group_27" data-name="Group 27"><path id="Path_81626" data-name="Path 81626" class="cls-2" d="M242.3,84.19H486.56a11.69,11.69,0,0,1,11.69,11.66v0h0v9.7H230.61v-9.7a11.67,11.67,0,0,1,11.66-11.69Z"/><path id="Rectangle_3956" data-name="Rectangle 3956" class="cls-3" d="M476.13,94.14h11.43a1.18,1.18,0,0,1,1.25,1.1v2.63a1.18,1.18,0,0,1-1.11,1.24H476.13a1.18,1.18,0,0,1-1.25-1.1V95.38A1.61,1.61,0,0,1,476.13,94.14Z"/><path id="Rectangle_3959" data-name="Rectangle 3959" class="cls-3" d="M440.82,94.14h28.34a1.17,1.17,0,0,1,1.24,1.1v2.63a1.17,1.17,0,0,1-1.1,1.24H440.81a1.17,1.17,0,0,1-1.24-1.1V95.38A1.33,1.33,0,0,1,440.82,94.14Z"/><path id="Rectangle_3961" data-name="Rectangle 3961" class="cls-3" d="M238.32,94.14h9.94a1.18,1.18,0,0,1,1.25,1.1v2.63a1.18,1.18,0,0,1-1.11,1.24H238.32a1.16,1.16,0,0,1-1.24-1.1.33.33,0,0,1,0-.14V95.38A1.32,1.32,0,0,1,238.32,94.14Z"/><path id="Rectangle_3960" data-name="Rectangle 3960" class="cls-3" d="M255.72,94.14h12.44a1.17,1.17,0,0,1,1.24,1.1v2.63a1.17,1.17,0,0,1-1.1,1.24H255.72a1.17,1.17,0,0,1-1.24-1.1V95.38A1.33,1.33,0,0,1,255.72,94.14Z"/><path id="Rectangle_3998" data-name="Rectangle 3998" class="cls-4" d="M230.61,105.58h71.11V251.13H235.09a4.46,4.46,0,0,1-4.48-4.43V105.58Z"/><path id="Rectangle_4017" data-name="Rectangle 4017" class="cls-5" d="M301.72,105.58H498.26V246.66a4.46,4.46,0,0,1-4.44,4.47H301.72Z"/></g><path class="cls-6" d="M410.43,176.65a46.67,46.67,0,0,1-.66,7.8,48.69,48.69,0,0,1-6,16.64c-8.37,13.89-24.3,23.77-41.32,23.56-23.69-.29-48-20.11-48-48a48,48,0,0,1,96,0Z"/><path class="cls-4" d="M696.73,139.77a73,73,0,0,1-1,12.19,76.56,76.56,0,0,1-9.41,26c-13.09,21.74-38,37.18-64.63,36.85-37-.45-75.06-31.45-75.06-75.06a75.07,75.07,0,0,1,150.13,0Z"/><g id="Monitoring"><path class="cls-7" d="M405.92,177.61l-9.28-6.41c-.2-.11-.45-.11-.55.1a.49.49,0,0,0,0,.37l1.4,4.35H393c-1-18-15.52-31.68-32.44-30.67-15.57,1-28,14.14-28.9,30.67h-4.44l1.39-4.35a.45.45,0,0,0-.25-.53.41.41,0,0,0-.35.06l-9.28,6.46a.38.38,0,0,0-.1.58c.05,0,.05.11.1.11l9.28,6.41c.2.1.45.1.55-.11a.48.48,0,0,0,0-.37l-1.39-4.4h4.44c1,18,15.57,31.68,32.49,30.62,15.53-1,27.91-14.14,28.85-30.62h4.4l-1.45,4.4a.4.4,0,0,0,.6.48l9.28-6.47a.38.38,0,0,0,.1-.58C406,177.66,406,177.66,405.92,177.61ZM379.22,176a38.31,38.31,0,0,0-3-13.35h8.24A29,29,0,0,1,388.65,176Zm-16.87,29.5a29.59,29.59,0,0,1-8-8.42h16A28.92,28.92,0,0,1,362.35,205.52Zm-10.09-12.23a36.33,36.33,0,0,1-3.14-13.35h5.44a1.79,1.79,0,0,0,1.6-1.06l1.89-3.87,2.85,11.71a1.91,1.91,0,0,0,1.65,1.43h.1a1.78,1.78,0,0,0,1.69-1.27l3.25-9.22,1.59,1.64a1.9,1.9,0,0,0,1.25.53h5a35.12,35.12,0,0,1-3.09,13.35Zm19-17.22-3.09-3.18a1.74,1.74,0,0,0-2.55,0,2.06,2.06,0,0,0-.45.69L363,179.83l-2.6-10.7a1.85,1.85,0,0,0-2.25-1.38,1.87,1.87,0,0,0-1.14,1L353.41,176h-4.29a34.31,34.31,0,0,1,3.44-13.35h19.52A34.13,34.13,0,0,1,375.52,176Zm-8.88-25.53a35.33,35.33,0,0,1,7.53,8.31H354.76A37.9,37.9,0,0,1,362.35,150.54Zm19.21,8.31h-7.23a39.15,39.15,0,0,0-6.14-8.15A25.83,25.83,0,0,1,381.56,158.85Zm-25-8.15a39.34,39.34,0,0,0-6.14,8.15h-7.29A26,26,0,0,1,356.56,150.7Zm-16.28,12h8.24a38.06,38.06,0,0,0-3,13.35H336A28.51,28.51,0,0,1,340.28,162.72Zm5.19,17.16a40.4,40.4,0,0,0,2.75,13.35h-8A29,29,0,0,1,336,179.88Zm-2.34,17.22H350a34,34,0,0,0,6,8.05A26.06,26.06,0,0,1,343.13,197.1Zm25.51,8.05a36.24,36.24,0,0,0,6-8.05h6.93A26.32,26.32,0,0,1,368.64,205.15Zm15.82-11.92h-8a40.4,40.4,0,0,0,2.75-13.35h9.43a29,29,0,0,1-4.19,13.35Z"/></g><path class="cls-4" d="M162.19,90.15a57.7,57.7,0,0,1-.81,9.58,60.06,60.06,0,0,1-7.4,20.45c-10.29,17.09-29.88,29.23-50.79,29-29.12-.36-59-24.72-59-59a59,59,0,0,1,118,0Z"/><path class="cls-4" d="M585.42,38.7a37.73,37.73,0,0,1-.53,6.29A39.39,39.39,0,0,1,580,58.4c-6.75,11.21-19.6,19.17-33.32,19-19.1-.23-38.7-16.21-38.7-38.7a38.7,38.7,0,1,1,77.4,0Z"/><path class="cls-4" d="M635.93,32.15a13.37,13.37,0,0,1-.2,2.35,14.41,14.41,0,0,1-14.26,12.12C614.33,46.53,607,40.56,607,32.15a14.47,14.47,0,0,1,28.93,0Z"/><path class="cls-4" d="M183.82,171.65a13.37,13.37,0,0,1-.2,2.35,14.41,14.41,0,0,1-14.26,12.12c-7.14-.09-14.47-6.06-14.47-14.47a14.47,14.47,0,0,1,28.93,0Z"/><path class="cls-4" d="M120.93,224.68a58.27,58.27,0,0,1-.83,9.82,61.51,61.51,0,0,1-7.58,21C102,273,81.9,285.41,60.46,285.15,30.62,284.78,0,259.82,0,224.68a60.47,60.47,0,0,1,120.93,0Z"/><path id="Path_581" data-name="Path 581" class="cls-8" d="M616.92,92.85h17.89V126H608V101.8h8.95Z"/><line id="Line_65" data-name="Line 65" class="cls-8" x1="607.97" y1="101.8" x2="616.92" y2="92.85"/><line id="Line_66" data-name="Line 66" class="cls-8" x1="621.39" y1="99.56" x2="630.34" y2="99.56"/><line id="Line_67" data-name="Line 67" class="cls-8" x1="621.39" y1="104.04" x2="630.34" y2="104.04"/><line id="Line_68" data-name="Line 68" class="cls-8" x1="612.45" y1="108.32" x2="630.34" y2="108.32"/><line id="Line_69" data-name="Line 69" class="cls-8" x1="612.45" y1="115.03" x2="630.34" y2="115.03"/><line id="Line_70" data-name="Line 70" class="cls-8" x1="612.45" y1="121.74" x2="630.34" y2="121.74"/><path id="Path_582" data-name="Path 582" class="cls-9" d="M635,109.07h20.31V119.5"/><path id="Path_583" data-name="Path 583" class="cls-9" d="M608,108.32H587.66v11"/><line id="Line_71" data-name="Line 71" class="cls-8" x1="622.51" y1="126.21" x2="622.51" y2="136.65"/><path id="Path_584" data-name="Path 584" class="cls-9" d="M650.65,117.27l4.47,4.47,4.48-4.47"/><path id="Path_585" data-name="Path 585" class="cls-8" d="M583.19,117.27l4.47,4.47,4.47-4.47"/><line id="Line_72" data-name="Line 72" class="cls-8" x1="588.78" y1="132.74" x2="588.78" y2="157.15"/><line id="Line_73" data-name="Line 73" class="cls-8" x1="655.5" y1="132.74" x2="655.5" y2="157.15"/><circle id="Ellipse_40" data-name="Ellipse 40" class="cls-10" cx="588.78" cy="161.62" r="4.47"/><circle id="Ellipse_42" data-name="Ellipse 42" class="cls-10" cx="600.15" cy="171.5" r="3.35"/><circle id="Ellipse_44" data-name="Ellipse 44" class="cls-10" cx="644.5" cy="171.5" r="3.35"/><line id="Line_74" data-name="Line 74" class="cls-8" x1="588.78" y1="150.63" x2="609.09" y2="150.25"/><line id="Line_75" data-name="Line 75" class="cls-8" x1="636.12" y1="150.44" x2="655.12" y2="150.44"/><line id="Line_76" data-name="Line 76" class="cls-8" x1="599.96" y1="150.63" x2="599.96" y2="167.77"/><line id="Line_77" data-name="Line 77" class="cls-8" x1="644.5" y1="150.63" x2="644.5" y2="167.77"/><path id="Path_587" data-name="Path 587" class="cls-8" d="M630.9,153.61l1.86,1.86a.66.66,0,0,1,.19.93l-.19.19-3.17,3.17a.53.53,0,0,1-.93,0h0l-1.86-1.86c0-.19-.19-.19-.38,0h-.18c-.37.18-.37.18-.37.74v2.24c0,.37-.19.74-.56.74h-4.66c-.38,0-.75-.18-.75-.56h0v-2.42c0-.19,0-.37-.18-.37s-.19,0-.38-.19a.26.26,0,0,0-.37,0l-1.68,1.68a.65.65,0,0,1-.93.19l-.19-.19-3.16-3a.64.64,0,0,1-.19-.93l.19-.19,1.86-1.86a.26.26,0,0,0,0-.38h0v-.18c-.19-.38-.19-.38-.75-.38h-2.23a.68.68,0,0,1-.75-.74v-4.85a.5.5,0,0,1,.56-.56h2.61c.19,0,.19,0,.37-.18,0-.19,0-.19.19-.38s0-.37,0-.55l-1.68-1.68A.65.65,0,0,1,613,143l.18-.19,3.17-3.17a.65.65,0,0,1,.93-.18l.19.18,1.86,1.87c.19.18.19.18.38,0l.18-.19c.37-.19.37-.19.37-.56v-2.24c0-.37.19-.74.56-.74h4.85c.37,0,.74.18.74.56v2.79c0,.19,0,.19.19.19h.19c.37.19.37.19.74-.19l1.68-1.67a.52.52,0,0,1,.93,0h0l3.36,3.35a.53.53,0,0,1,0,.93h0l-1.87,1.68c-.18.19-.18.19,0,.37h0c0,.56.38.75.93.56a7.41,7.41,0,0,1,2,0c.38,0,.75.19.75.56v4.85c0,.37-.19.74-.56.74H632c-.19,0-.19,0-.38.19C631.08,153.24,630.9,153.42,630.9,153.61Z"/><path id="Path_588" data-name="Path 588" class="cls-11" d="M622.51,145.78a3.92,3.92,0,1,1-3.91,3.92,3.94,3.94,0,0,1,3.91-3.92Z"/><circle id="Ellipse_46" data-name="Ellipse 46" class="cls-10" cx="655.5" cy="161.62" r="4.47"/><rect id="Rectangle_112" data-name="Rectangle 112" class="cls-12" x="580.95" y="126.21" width="15.65" height="6.71"/><rect id="Rectangle_113" data-name="Rectangle 113" class="cls-12" x="647.3" y="126.21" width="15.65" height="6.71"/><path id="Path_559" data-name="Path 559" class="cls-5" d="M59.85,190.57c17.77,0,32.16,14.9,32.16,33.27s-14.39,33.28-32.16,33.28S27.7,242.22,27.7,223.84,42.1,190.57,59.85,190.57Z"/><path id="Path_560" data-name="Path 560" class="cls-13" d="M70.52,194.49s-2.77-2.11-10.68-2.81"/><path id="Path_565" data-name="Path 565" class="cls-13" d="M90.87,225s.91-3.36-1.4-11"/><path id="Path_566" data-name="Path 566" class="cls-13" d="M84.67,205.6s-.84-2.92-6.4-7.15"/><path id="Path_561" data-name="Path 561" class="cls-13" d="M44.29,196.27s-3.32.93-8.57,6.78"/><line id="Line_38" data-name="Line 38" class="cls-13" x1="72.14" y1="199.44" x2="74.09" y2="195.54"/><line id="Line_40" data-name="Line 40" class="cls-14" x1="85.53" y1="220.97" x2="89.42" y2="220.56"/><line id="Line_41" data-name="Line 41" class="cls-13" x1="59.81" y1="196.59" x2="59.87" y2="192.09"/><line id="Line_42" data-name="Line 42" class="cls-13" x1="46.61" y1="200.4" x2="43.9" y2="196.94"/><line id="Line_43" data-name="Line 43" class="cls-13" x1="37.83" y1="208.24" x2="34.45" y2="205.97"/><ellipse id="Ellipse_18" data-name="Ellipse 18" class="cls-15" cx="59.61" cy="224.45" rx="6.19" ry="6.36"/><ellipse id="Ellipse_19" data-name="Ellipse 19" class="cls-16" cx="59.84" cy="224.39" rx="4.16" ry="4.32"/><line id="Line_45" data-name="Line 45" class="cls-13" x1="64.76" y1="224.04" x2="73.83" y2="224.04"/><path id="Rectangle_67" data-name="Rectangle 67" class="cls-2" d="M49.45,200.83h0a2.52,2.52,0,0,1,3.22,1.51l.34.95a2.52,2.52,0,0,1-1.52,3.22h0A2.51,2.51,0,0,1,48.28,205l-.34-1A2.51,2.51,0,0,1,49.45,200.83Z"/><path id="Rectangle_68" data-name="Rectangle 68" class="cls-2" d="M59.84,199.64h0a2.27,2.27,0,0,1,2.27,2.27v1.51a2.26,2.26,0,0,1-2.27,2.27h0a2.27,2.27,0,0,1-2.27-2.27v-1.51A2.27,2.27,0,0,1,59.84,199.64Z"/><path id="Rectangle_69" data-name="Rectangle 69" class="cls-2" d="M70.6,201.05h0a2.53,2.53,0,0,1,.92,3.44l-.51.87a2.51,2.51,0,0,1-3.43.92h0a2.52,2.52,0,0,1-.92-3.44l.5-.87A2.53,2.53,0,0,1,70.6,201.05Z"/><path id="Rectangle_70" data-name="Rectangle 70" class="cls-2" d="M39.18,218.89h0a2.51,2.51,0,0,1-3.28,1.38l-.93-.38a2.52,2.52,0,0,1-1.38-3.28h0a2.53,2.53,0,0,1,3.28-1.38l.94.39A2.5,2.5,0,0,1,39.18,218.89Z"/><path id="Rectangle_71" data-name="Rectangle 71" class="cls-2" d="M37.91,226.11h0a2.27,2.27,0,0,1-2.27,2.27H34.13a2.27,2.27,0,0,1-2.27-2.27h0a2.27,2.27,0,0,1,2.27-2.27h1.51A2.27,2.27,0,0,1,37.91,226.11Z"/><path id="Rectangle_72" data-name="Rectangle 72" class="cls-2" d="M79.45,207.26h0a2.52,2.52,0,0,1-.31,3.55l-.77.64a2.52,2.52,0,0,1-3.55-.31h0a2.52,2.52,0,0,1,.32-3.55l.77-.64A2.52,2.52,0,0,1,79.45,207.26Z"/><path id="Rectangle_73" data-name="Rectangle 73" class="cls-2" d="M86,216.23h0a2.52,2.52,0,0,1-1.51,3.22l-1,.34a2.52,2.52,0,0,1-3.22-1.52h0a2.52,2.52,0,0,1,1.52-3.22l1-.34A2.51,2.51,0,0,1,86,216.23Z"/><path id="Rectangle_74" data-name="Rectangle 74" class="cls-2" d="M87.18,227.09h0a2.51,2.51,0,0,1-2.73,2.27l-1-.09a2.52,2.52,0,0,1-2.27-2.74h0a2.51,2.51,0,0,1,2.74-2.27l1,.09A2.51,2.51,0,0,1,87.18,227.09Z"/><path id="Rectangle_75" data-name="Rectangle 75" class="cls-2" d="M39.87,206.49h0a2.5,2.5,0,0,1,3.55.13l.69.73a2.53,2.53,0,0,1-.13,3.56h0a2.52,2.52,0,0,1-3.56-.13l-.68-.74A2.5,2.5,0,0,1,39.87,206.49Z"/><path id="Path_557" data-name="Path 557" class="cls-17" d="M72.51,248.24c-28,10.81-35-12.39-36.66-19.41h4.6l-7.59-8.27-8.06,8.27h4.78c3.38,26,25.35,31.34,38.09,26.9,15.93-5.56,17.26-16.67,17.26-16.67C83.6,240.46,78.29,246,72.51,248.24Z"/><line id="Line_44" data-name="Line 44" class="cls-13" x1="59.84" y1="219.31" x2="59.84" y2="203.42"/><line id="Line_39" data-name="Line 39" class="cls-13" x1="81.58" y1="208.4" x2="84.77" y2="205.8"/><rect id="Rectangle_103" data-name="Rectangle 103" class="cls-14" x="21.65" y="187.54" width="72.6" height="72.6"/><g id="Layer_1-3" data-name="Layer 1"><rect id="Rectangle_79" data-name="Rectangle 79" class="cls-18" x="64.91" y="66.34" width="75.98" height="56.08" rx="2.26"/><rect id="Rectangle_78" data-name="Rectangle 78" class="cls-9" x="64.91" y="57.29" width="75.98" height="65.12" rx="2.26"/><line id="Line_46" data-name="Line 46" class="cls-9" x1="65.02" y1="66.86" x2="140.99" y2="66.86"/><line id="Line_47" data-name="Line 47" class="cls-8" x1="71.25" y1="61.82" x2="102" y2="61.82"/><circle id="Ellipse_20" data-name="Ellipse 20" class="cls-9" cx="114.67" cy="61.96" r="1.81"/><circle id="Ellipse_21" data-name="Ellipse 21" class="cls-9" cx="130.95" cy="61.96" r="1.81"/><circle id="Ellipse_22" data-name="Ellipse 22" class="cls-9" cx="122.81" cy="61.96" r="1.81"/><g id="Ellipse_23" data-name="Ellipse 23"><circle class="cls-2" cx="103.24" cy="82.65" r="2.98"/><circle class="cls-2" cx="103.24" cy="82.65" r="3.89"/></g><g id="Ellipse_24" data-name="Ellipse 24"><circle class="cls-4" cx="109.84" cy="86.6" r="0.54"/><circle class="cls-4" cx="109.84" cy="86.6" r="1.45"/></g><g id="Ellipse_25" data-name="Ellipse 25"><circle class="cls-2" cx="112.71" cy="93.51" r="0.54"/><circle class="cls-2" cx="112.71" cy="93.51" r="1.45"/></g><g id="Ellipse_26" data-name="Ellipse 26"><circle class="cls-2" cx="95.24" cy="86.6" r="2.51"/><circle class="cls-2" cx="95.24" cy="86.6" r="3.42"/></g><g id="Ellipse_27" data-name="Ellipse 27"><circle class="cls-2" cx="92.83" cy="93.51" r="2.06"/><circle class="cls-2" cx="92.83" cy="93.51" r="2.97"/></g><g id="Ellipse_28" data-name="Ellipse 28"><circle class="cls-2" cx="96.49" cy="100.06" r="1.61"/><circle class="cls-2" cx="96.49" cy="100.06" r="2.51"/></g><g id="Ellipse_29" data-name="Ellipse 29"><circle class="cls-2" cx="103.24" cy="102.5" r="1.14"/><circle class="cls-2" cx="103.24" cy="102.5" r="2.04"/></g><g id="Ellipse_30" data-name="Ellipse 30"><circle class="cls-2" cx="109.44" cy="100.06" r="0.69"/><circle class="cls-2" cx="109.44" cy="100.06" r="1.59"/></g></g></g></g></svg>